<mxfile host="app.diagrams.net" modified="2020-09-24T09:02:32.333Z" agent="5.0 (Windows NT 10.0; Win64; x64) AppleWebKit/537.36 (KHTML, like Gecko) Chrome/85.0.4183.121 Safari/537.36" etag="I4lqJ856Znb2HHHCbkdy" version="13.7.5" type="github">
  <diagram id="vQyqBrsFgkDb8cZjNnJ9" name="Page-1">
    <mxGraphModel dx="1673" dy="856" grid="1" gridSize="10" guides="1" tooltips="1" connect="1" arrows="1" fold="1" page="1" pageScale="1" pageWidth="827" pageHeight="1169" math="0" shadow="0">
      <root>
        <mxCell id="0" />
        <mxCell id="1" parent="0" />
        <mxCell id="We9ft9rKSuaxdygpwV60-1" value="RESTAURANT" style="swimlane;fontStyle=0;childLayout=stackLayout;horizontal=1;startSize=26;fillColor=none;horizontalStack=0;resizeParent=1;resizeParentMax=0;resizeLast=0;collapsible=1;marginBottom=0;" vertex="1" parent="1">
          <mxGeometry x="120" y="150" width="140" height="170" as="geometry" />
        </mxCell>
        <mxCell id="We9ft9rKSuaxdygpwV60-2" value="siret" style="text;strokeColor=none;fillColor=none;align=left;verticalAlign=top;spacingLeft=4;spacingRight=4;overflow=hidden;rotatable=0;points=[[0,0.5],[1,0.5]];portConstraint=eastwest;" vertex="1" parent="We9ft9rKSuaxdygpwV60-1">
          <mxGeometry y="26" width="140" height="26" as="geometry" />
        </mxCell>
        <mxCell id="We9ft9rKSuaxdygpwV60-4" value="nom&#xa;&#xa;addresse&#xa;&#xa;nombre_de_table&#xa;&#xa;statut" style="text;strokeColor=none;fillColor=none;align=left;verticalAlign=top;spacingLeft=4;spacingRight=4;overflow=hidden;rotatable=0;points=[[0,0.5],[1,0.5]];portConstraint=eastwest;" vertex="1" parent="We9ft9rKSuaxdygpwV60-1">
          <mxGeometry y="52" width="140" height="118" as="geometry" />
        </mxCell>
        <mxCell id="We9ft9rKSuaxdygpwV60-5" value="salaries" style="swimlane;fontStyle=0;childLayout=stackLayout;horizontal=1;startSize=26;fillColor=none;horizontalStack=0;resizeParent=1;resizeParentMax=0;resizeLast=0;collapsible=1;marginBottom=0;" vertex="1" parent="1">
          <mxGeometry x="400" y="170" width="140" height="130" as="geometry" />
        </mxCell>
        <mxCell id="We9ft9rKSuaxdygpwV60-6" value="nom" style="text;strokeColor=none;fillColor=none;align=left;verticalAlign=top;spacingLeft=4;spacingRight=4;overflow=hidden;rotatable=0;points=[[0,0.5],[1,0.5]];portConstraint=eastwest;" vertex="1" parent="We9ft9rKSuaxdygpwV60-5">
          <mxGeometry y="26" width="140" height="26" as="geometry" />
        </mxCell>
        <mxCell id="We9ft9rKSuaxdygpwV60-7" value="prenom" style="text;strokeColor=none;fillColor=none;align=left;verticalAlign=top;spacingLeft=4;spacingRight=4;overflow=hidden;rotatable=0;points=[[0,0.5],[1,0.5]];portConstraint=eastwest;" vertex="1" parent="We9ft9rKSuaxdygpwV60-5">
          <mxGeometry y="52" width="140" height="26" as="geometry" />
        </mxCell>
        <mxCell id="We9ft9rKSuaxdygpwV60-8" value="salaire&#xa;&#xa;salarie_id" style="text;strokeColor=none;fillColor=none;align=left;verticalAlign=top;spacingLeft=4;spacingRight=4;overflow=hidden;rotatable=0;points=[[0,0.5],[1,0.5]];portConstraint=eastwest;" vertex="1" parent="We9ft9rKSuaxdygpwV60-5">
          <mxGeometry y="78" width="140" height="52" as="geometry" />
        </mxCell>
        <mxCell id="We9ft9rKSuaxdygpwV60-9" value="client" style="swimlane;fontStyle=0;childLayout=stackLayout;horizontal=1;startSize=26;fillColor=none;horizontalStack=0;resizeParent=1;resizeParentMax=0;resizeLast=0;collapsible=1;marginBottom=0;" vertex="1" parent="1">
          <mxGeometry x="450" y="370" width="140" height="170" as="geometry" />
        </mxCell>
        <mxCell id="We9ft9rKSuaxdygpwV60-10" value="nom" style="text;strokeColor=none;fillColor=none;align=left;verticalAlign=top;spacingLeft=4;spacingRight=4;overflow=hidden;rotatable=0;points=[[0,0.5],[1,0.5]];portConstraint=eastwest;" vertex="1" parent="We9ft9rKSuaxdygpwV60-9">
          <mxGeometry y="26" width="140" height="26" as="geometry" />
        </mxCell>
        <mxCell id="We9ft9rKSuaxdygpwV60-11" value="prenom" style="text;strokeColor=none;fillColor=none;align=left;verticalAlign=top;spacingLeft=4;spacingRight=4;overflow=hidden;rotatable=0;points=[[0,0.5],[1,0.5]];portConstraint=eastwest;" vertex="1" parent="We9ft9rKSuaxdygpwV60-9">
          <mxGeometry y="52" width="140" height="26" as="geometry" />
        </mxCell>
        <mxCell id="We9ft9rKSuaxdygpwV60-12" value="age&#xa;&#xa;budget_max&#xa;&#xa;client_id" style="text;strokeColor=none;fillColor=none;align=left;verticalAlign=top;spacingLeft=4;spacingRight=4;overflow=hidden;rotatable=0;points=[[0,0.5],[1,0.5]];portConstraint=eastwest;" vertex="1" parent="We9ft9rKSuaxdygpwV60-9">
          <mxGeometry y="78" width="140" height="92" as="geometry" />
        </mxCell>
        <mxCell id="We9ft9rKSuaxdygpwV60-28" value="" style="endArrow=block;startArrow=block;endFill=1;startFill=1;html=1;exitX=-0.002;exitY=0.772;exitDx=0;exitDy=0;exitPerimeter=0;entryX=1;entryY=0.5;entryDx=0;entryDy=0;" edge="1" parent="1" source="We9ft9rKSuaxdygpwV60-12" target="We9ft9rKSuaxdygpwV60-2">
          <mxGeometry width="160" relative="1" as="geometry">
            <mxPoint x="280" y="280" as="sourcePoint" />
            <mxPoint x="350" y="340" as="targetPoint" />
            <Array as="points" />
          </mxGeometry>
        </mxCell>
        <mxCell id="We9ft9rKSuaxdygpwV60-29" value="" style="endArrow=block;startArrow=block;endFill=1;startFill=1;html=1;entryX=0;entryY=0.808;entryDx=0;entryDy=0;entryPerimeter=0;" edge="1" parent="1" target="We9ft9rKSuaxdygpwV60-8">
          <mxGeometry width="160" relative="1" as="geometry">
            <mxPoint x="260" y="190" as="sourcePoint" />
            <mxPoint x="420" y="320" as="targetPoint" />
          </mxGeometry>
        </mxCell>
        <mxCell id="We9ft9rKSuaxdygpwV60-32" value="1..n" style="text;html=1;align=center;verticalAlign=middle;resizable=0;points=[];autosize=1;" vertex="1" parent="1">
          <mxGeometry x="270" y="160" width="40" height="20" as="geometry" />
        </mxCell>
        <mxCell id="We9ft9rKSuaxdygpwV60-34" value="1..1" style="text;html=1;align=center;verticalAlign=middle;resizable=0;points=[];autosize=1;" vertex="1" parent="1">
          <mxGeometry x="350" y="240" width="40" height="20" as="geometry" />
        </mxCell>
        <mxCell id="We9ft9rKSuaxdygpwV60-48" value="" style="endArrow=block;startArrow=block;endFill=1;startFill=1;html=1;exitX=1;exitY=0.5;exitDx=0;exitDy=0;" edge="1" parent="1" source="We9ft9rKSuaxdygpwV60-2">
          <mxGeometry width="160" relative="1" as="geometry">
            <mxPoint x="240" y="819.41" as="sourcePoint" />
            <mxPoint x="400" y="819.41" as="targetPoint" />
          </mxGeometry>
        </mxCell>
        <mxCell id="We9ft9rKSuaxdygpwV60-35" value="repas_association" style="swimlane;fontStyle=0;childLayout=stackLayout;horizontal=1;startSize=26;fillColor=none;horizontalStack=0;resizeParent=1;resizeParentMax=0;resizeLast=0;collapsible=1;marginBottom=0;" vertex="1" parent="1">
          <mxGeometry x="130" y="650" width="140" height="88" as="geometry" />
        </mxCell>
        <mxCell id="We9ft9rKSuaxdygpwV60-38" value="id_menu&#xa;&#xa;id_repas" style="text;strokeColor=none;fillColor=none;align=left;verticalAlign=top;spacingLeft=4;spacingRight=4;overflow=hidden;rotatable=0;points=[[0,0.5],[1,0.5]];portConstraint=eastwest;" vertex="1" parent="We9ft9rKSuaxdygpwV60-35">
          <mxGeometry y="26" width="140" height="62" as="geometry" />
        </mxCell>
        <mxCell id="We9ft9rKSuaxdygpwV60-50" value="" style="endArrow=block;startArrow=block;endFill=1;startFill=1;html=1;exitX=1.04;exitY=0.181;exitDx=0;exitDy=0;exitPerimeter=0;" edge="1" parent="1" source="We9ft9rKSuaxdygpwV60-38">
          <mxGeometry width="160" relative="1" as="geometry">
            <mxPoint x="340" y="590" as="sourcePoint" />
            <mxPoint x="350" y="340" as="targetPoint" />
          </mxGeometry>
        </mxCell>
        <mxCell id="We9ft9rKSuaxdygpwV60-43" value="menu" style="swimlane;fontStyle=0;childLayout=stackLayout;horizontal=1;startSize=26;fillColor=none;horizontalStack=0;resizeParent=1;resizeParentMax=0;resizeLast=0;collapsible=1;marginBottom=0;" vertex="1" parent="1">
          <mxGeometry x="400" y="790" width="140" height="130" as="geometry" />
        </mxCell>
        <mxCell id="We9ft9rKSuaxdygpwV60-45" value="id_menu&#xa;&#xa;nom&#xa;&#xa;prix" style="text;strokeColor=none;fillColor=none;align=left;verticalAlign=top;spacingLeft=4;spacingRight=4;overflow=hidden;rotatable=0;points=[[0,0.5],[1,0.5]];portConstraint=eastwest;" vertex="1" parent="We9ft9rKSuaxdygpwV60-43">
          <mxGeometry y="26" width="140" height="104" as="geometry" />
        </mxCell>
        <mxCell id="We9ft9rKSuaxdygpwV60-51" value="1..n" style="text;html=1;align=center;verticalAlign=middle;resizable=0;points=[];autosize=1;" vertex="1" parent="1">
          <mxGeometry x="290" y="240" width="40" height="20" as="geometry" />
        </mxCell>
        <mxCell id="We9ft9rKSuaxdygpwV60-52" value="1..n" style="text;html=1;align=center;verticalAlign=middle;resizable=0;points=[];autosize=1;" vertex="1" parent="1">
          <mxGeometry x="400" y="420" width="40" height="20" as="geometry" />
        </mxCell>
        <mxCell id="We9ft9rKSuaxdygpwV60-53" value="1.n" style="text;html=1;align=center;verticalAlign=middle;resizable=0;points=[];autosize=1;" vertex="1" parent="1">
          <mxGeometry x="250" y="340" width="30" height="20" as="geometry" />
        </mxCell>
        <mxCell id="We9ft9rKSuaxdygpwV60-54" value="1.n" style="text;html=1;align=center;verticalAlign=middle;resizable=0;points=[];autosize=1;" vertex="1" parent="1">
          <mxGeometry x="400" y="750" width="30" height="20" as="geometry" />
        </mxCell>
        <mxCell id="We9ft9rKSuaxdygpwV60-55" value="MLD :&amp;nbsp;&lt;br&gt;&lt;br&gt;restaurant (&lt;u&gt;num_siret&lt;/u&gt;, nom, adresse, nb_table_max, statut, #id_menu)&lt;br&gt;salariÃ© (&lt;u&gt;id&lt;/u&gt;, nom, prenom, salaire, #num_siret)&lt;br&gt;client (&lt;u&gt;id&lt;/u&gt;, nom, prenom, budget_max)&lt;br&gt;repas (&lt;u&gt;#num_siret, #id&lt;/u&gt;, prix, date)&lt;br&gt;menu (&lt;u&gt;id_menu&lt;/u&gt;, nom, prix)&lt;br&gt;restau_menu (&lt;u&gt;#restau, #menu&lt;/u&gt;)" style="html=1;align=left;" vertex="1" parent="1">
          <mxGeometry x="670" y="390" width="540" height="180" as="geometry" />
        </mxCell>
        <mxCell id="We9ft9rKSuaxdygpwV60-56" value="restau_menu" style="swimlane;fontStyle=0;childLayout=stackLayout;horizontal=1;startSize=26;fillColor=none;horizontalStack=0;resizeParent=1;resizeParentMax=0;resizeLast=0;collapsible=1;marginBottom=0;" vertex="1" parent="1">
          <mxGeometry x="140" y="770" width="140" height="52" as="geometry" />
        </mxCell>
        <mxCell id="We9ft9rKSuaxdygpwV60-60" value="" style="endArrow=block;startArrow=block;endFill=1;startFill=1;html=1;" edge="1" parent="1">
          <mxGeometry width="160" relative="1" as="geometry">
            <mxPoint x="280" y="790" as="sourcePoint" />
            <mxPoint x="370" y="680" as="targetPoint" />
          </mxGeometry>
        </mxCell>
        <mxCell id="We9ft9rKSuaxdygpwV60-61" value="Regles de notation pour le MLD :&lt;br&gt;&lt;br&gt;# pour une clÃ© Ã©trangÃ¨re&lt;br&gt;SoulignÃ© pour une clÃ© primaire&lt;br&gt;&lt;br&gt;Les deux pour une clÃ© provenant d&#39;une table d&#39;association,&lt;br&gt;avec une clÃ© Ã©trangÃ¨re et primaire&lt;br&gt;&lt;br&gt;&lt;br&gt;Une clÃ© primaire est unique, une clÃ© Ã©trangÃ¨re &lt;br&gt;sert Ã  rattacher une table Ã  une autre" style="html=1;" vertex="1" parent="1">
          <mxGeometry x="760" y="30" width="430" height="200" as="geometry" />
        </mxCell>
      </root>
    </mxGraphModel>
  </diagram>
</mxfile>
